<?xml version="1.0" ?><!DOCTYPE svg  PUBLIC '-//W3C//DTD SVG 1.1//EN'  'http://www.w3.org/Graphics/SVG/1.1/DTD/svg11.dtd'><svg enable-background="new 0 0 32 32" version="1.1" viewBox="0 0 32 32" xml:space="preserve" xmlns="http://www.w3.org/2000/svg" xmlns:xlink="http://www.w3.org/1999/xlink"><g id="Desktop25"/><g id="Desktop24"/><g id="Desktop23"/><g id="Desktop22"/><g id="Desktop21"/><g id="Desktop20"><g><path d="M27,17c-0.5527,0-1-0.4473-1-1v-3c0-5.5137-4.4863-10-10-10S6,7.4863,6,13v3c0,0.5527-0.4473,1-1,1    s-1-0.4473-1-1v-3C4,6.3828,9.3828,1,16,1s12,5.3828,12,12v3C28,16.5527,27.5527,17,27,17z" fill="#3F51B5"/></g><g><path d="M24,29h-5c-0.5527,0-1-0.4473-1-1s0.4473-1,1-1h5c0.5518,0,1-0.4482,1-1v-1c0-0.5527,0.4473-1,1-1    s1,0.4473,1,1v1C27,27.6543,25.6543,29,24,29z" fill="#3F51B5"/></g><g><path d="M9,16v9c0,0.55-0.45,1-1,1H5c-2.21,0-4-1.79-4-4v-3c0-2.21,1.79-4,4-4h3C8.55,15,9,15.45,9,16z" fill="#2197F3"/></g><g><path d="M31,19v3c0,2.21-1.79,4-4,4h-3c-0.55,0-1-0.45-1-1v-9c0-0.55,0.45-1,1-1h3C29.21,15,31,16.79,31,19z" fill="#2197F3"/></g><g><path d="M20,26v4c0,0.55-0.45,1-1,1h-4c-1.65,0-3-1.35-3-3c0-1.65,1.35-3,3-3h4C19.55,25,20,25.45,20,26z" fill="#FFC10A"/></g></g><g id="Desktop19"/><g id="Desktop18"/><g id="Desktop17"/><g id="Desktop16"/><g id="Desktop15"/><g id="Desktop14"/><g id="Desktop13"/><g id="Desktop12"/><g id="Desktop11"/><g id="Desktop10"/><g id="Desktop09"/><g id="Desktop08"/><g id="Desktop07"/><g id="Desktop06"/><g id="Desktop05"/><g id="Desktop04"/><g id="Desktop03"/><g id="Desktop02"/><g id="Desktop01"/></svg>